HIERARCHY
ROOT hip
{
  OFFSET 0 0 0
  CHANNELS 6 Xposition Yposition Zposition Zrotation Yrotation Xrotation
  JOINT abdomen
  {
    OFFSET 0 20.6881 -0.73152
    CHANNELS 3 Zrotation Xrotation Yrotation
    JOINT chest
    {
      OFFSET 0 11.7043 -0.48768
      CHANNELS 3 Zrotation Xrotation Yrotation
      JOINT neck
      {
        OFFSET 0 22.1894 -2.19456
        CHANNELS 3 Zrotation Xrotation Yrotation
        JOINT head
        {
          OFFSET -0.24384 7.07133 1.2192
          CHANNELS 3 Zrotation Xrotation Yrotation
          JOINT leftEye
          {
            OFFSET 4.14528 8.04674 8.04672
            CHANNELS 3 Zrotation Xrotation Yrotation
            End Site
            {
              OFFSET 1 0 0
            }
          }
          JOINT rightEye
          {
            OFFSET -3.6576 8.04674 8.04672
            CHANNELS 3 Zrotation Xrotation Yrotation
            End Site
            {
              OFFSET 1 0 0
            }
          }
        }
      }
      JOINT rCollar
      {
        OFFSET -2.68224 19.2634 -4.8768
        CHANNELS 3 Zrotation Xrotation Yrotation
        JOINT rShldr
        {
          OFFSET -8.77824 -1.95073 1.46304
          CHANNELS 3 Zrotation Xrotation Yrotation
          JOINT rForeArm
          {
            OFFSET -28.1742 -1.7115 0.48768
            CHANNELS 3 Zrotation Xrotation Yrotation
            JOINT rHand
            {
              OFFSET -22.5879 0.773209 7.07136
              CHANNELS 3 Zrotation Xrotation Yrotation
              JOINT rThumb1
              {
                OFFSET -1.2192 -0.487915 3.41376
                CHANNELS 3 Zrotation Xrotation Yrotation
                JOINT rThumb2
                {
                  OFFSET -3.37035 -0.52449 3.41376
                  CHANNELS 3 Zrotation Xrotation Yrotation
                  End Site
                  {
                    OFFSET -1.78271 -1.18214 1.43049
                  }
                }
              }
              JOINT rIndex1
              {
                OFFSET -7.75947 0.938293 5.60832
                CHANNELS 3 Zrotation Xrotation Yrotation
                JOINT rIndex2
                {
                  OFFSET -2.54057 -0.884171 1.56538
                  CHANNELS 3 Zrotation Xrotation Yrotation
                  End Site
                  {
                    OFFSET -1.62519 -0.234802 1.16502
                  }
                }
              }
              JOINT rMid1
              {
                OFFSET -8.24714 1.18213 3.41376
                CHANNELS 3 Zrotation Xrotation Yrotation
                JOINT rMid2
                {
                  OFFSET -3.10165 -0.590103 1.0647
                  CHANNELS 3 Zrotation Xrotation Yrotation
                  End Site
                  {
                    OFFSET -2.48547 -0.328903 0.83742
                  }
                }
              }
              JOINT rRing1
              {
                OFFSET -8.82822 0.546677 1.51678
                CHANNELS 3 Zrotation Xrotation Yrotation
                JOINT rRing2
                {
                  OFFSET -2.60934 -0.819778 -0.0198488
                  CHANNELS 3 Zrotation Xrotation Yrotation
                  End Site
                  {
                    OFFSET -2.33842 -0.294052 0.168128
                  }
                }
              }
              JOINT rPinky1
              {
                OFFSET -8.27202 -0.0477905 -0.4584
                CHANNELS 3 Zrotation Xrotation Yrotation
                JOINT rPinky2
                {
                  OFFSET -1.82734 -0.647385 -0.700984
                  CHANNELS 3 Zrotation Xrotation Yrotation
                  End Site
                  {
                    OFFSET -1.69225 -0.51767 -0.607171
                  }
                }
              }
            }
          }
        }
      }
      JOINT lCollar
      {
        OFFSET 2.68224 19.2634 -4.8768
        CHANNELS 3 Zrotation Xrotation Yrotation
        JOINT lShldr
        {
          OFFSET 8.77824 -1.95073 1.46304
          CHANNELS 3 Zrotation Xrotation Yrotation
          JOINT lForeArm
          {
            OFFSET 28.1742 -1.7115 0.48768
            CHANNELS 3 Zrotation Xrotation Yrotation
            JOINT lHand
            {
              OFFSET 22.5879 0.773209 7.07136
              CHANNELS 3 Zrotation Xrotation Yrotation
              JOINT lThumb1
              {
                OFFSET 1.2192 -0.487915 3.41376
                CHANNELS 3 Zrotation Xrotation Yrotation
                JOINT lThumb2
                {
                  OFFSET 3.37035 -0.52449 3.41376
                  CHANNELS 3 Zrotation Xrotation Yrotation
                  End Site
                  {
                    OFFSET 1.78271 -1.18214 1.43049
                  }
                }
              }
              JOINT lIndex1
              {
                OFFSET 7.75947 0.938293 5.60832
                CHANNELS 3 Zrotation Xrotation Yrotation
                JOINT lIndex2
                {
                  OFFSET 2.54057 -0.884171 1.56538
                  CHANNELS 3 Zrotation Xrotation Yrotation
                  End Site
                  {
                    OFFSET 1.62519 -0.234802 1.16502
                  }
                }
              }
              JOINT lMid1
              {
                OFFSET 8.24714 1.18213 3.41376
                CHANNELS 3 Zrotation Xrotation Yrotation
                JOINT lMid2
                {
                  OFFSET 3.10165 -0.590103 1.0647
                  CHANNELS 3 Zrotation Xrotation Yrotation
                  End Site
                  {
                    OFFSET 2.48547 -0.328903 0.83742
                  }
                }
              }
              JOINT lRing1
              {
                OFFSET 8.82822 0.546677 1.51678
                CHANNELS 3 Zrotation Xrotation Yrotation
                JOINT lRing2
                {
                  OFFSET 2.60934 -0.819778 -0.0198488
                  CHANNELS 3 Zrotation Xrotation Yrotation
                  End Site
                  {
                    OFFSET 2.33842 -0.294052 0.168128
                  }
                }
              }
              JOINT lPinky1
              {
                OFFSET 8.27202 -0.0477905 -0.4584
                CHANNELS 3 Zrotation Xrotation Yrotation
                JOINT lPinky2
                {
                  OFFSET 1.82734 -0.647385 -0.700984
                  CHANNELS 3 Zrotation Xrotation Yrotation
                  End Site
                  {
                    OFFSET 1.69225 -0.51767 -0.607171
                  }
                }
              }
            }
          }
        }
      }
    }
  }
  JOINT rButtock
  {
    OFFSET -8.77824 4.35084 1.2192
    CHANNELS 3 Zrotation Xrotation Yrotation
    JOINT rThigh
    {
      OFFSET 0 -1.70687 -2.19456
      CHANNELS 3 Zrotation Xrotation Yrotation
      JOINT rShin
      {
        OFFSET 0 -36.8199 0.73152
        CHANNELS 3 Zrotation Xrotation Yrotation
        JOINT rFoot
        {
          OFFSET 0.73152 -45.1104 -5.12064
          CHANNELS 3 Zrotation Xrotation Yrotation
          End Site
          {
            OFFSET -1.1221 -3.69964 12.103
          }
        }
      }
    }
  }
  JOINT lButtock
  {
    OFFSET 8.77824 4.35084 1.2192
    CHANNELS 3 Zrotation Xrotation Yrotation
    JOINT lThigh
    {
      OFFSET 0 -1.70687 -2.19456
      CHANNELS 3 Zrotation Xrotation Yrotation
      JOINT lShin
      {
        OFFSET 0 -36.8199 0.73152
        CHANNELS 3 Zrotation Xrotation Yrotation
        JOINT lFoot
        {
          OFFSET -0.73152 -45.1104 -5.12064
          CHANNELS 3 Zrotation Xrotation Yrotation
          End Site
          {
            OFFSET 1.1221 -3.69964 12.103
          }
        }
      }
    }
  }
}
MOTION
Frames:	7
Frame Time:	0.00833333
83.2904 82.9144 124.433 162.574 -17.3302 -158.605 -7.36266 -18.4703 1.83006 -0.0535496 14.0098 0.665045 -0.243524 14.0087 4.48709 -2.18651 -5.8641 6.6631 -0.0 0.0 0.0 -0.0 0.0 0.0 1.34662e-15 2.112e-13 3.1044e-13 76.4228 12.8554 2.10585 -15.5019 -8.23298 28.6273 -0.00277471 -1.55514 -0.218609 -1.43766e-09 3.80123e-09 -2.66263e-10 -2.49034e-09 6.57704e-09 -4.54305e-10 -1.43766e-09 3.80123e-09 -2.66273e-10 7.73091 5.47488 0.417314 -1.43767e-09 3.80123e-09 -2.66267e-10 2.90554 0.965183 0.102902 -1.43766e-09 3.80123e-09 -2.66266e-10 10.2786 0.731801 0.0259123 -1.43767e-09 3.80123e-09 -2.66256e-10 2.22167 -0.733487 -0.20892 1.33694e-15 2.11217e-13 3.10182e-13 -77.4404 13.4903 5.10201 10.764 -4.61885 -19.2422 0.0742507 7.75293 -1.09636 -1.63091e-09 -1.23319e-09 4.62011e-09 -2.78452e-09 -2.14772e-09 8.00085e-09 -1.63092e-09 -1.23318e-09 4.62012e-09 -7.73091 5.47488 -0.417314 -1.63091e-09 -1.23319e-09 4.62011e-09 -2.90554 0.965183 -0.102902 -1.63091e-09 -1.23319e-09 4.62011e-09 -10.2786 0.731801 -0.0259123 -1.6309e-09 -1.23319e-09 4.6201e-09 -2.22167 -0.733487 0.20892 -2.03217e-16 0.0 -3.88251e-19 -18.662 -20.9142 3.4607 -0.0121613 25.2538 1.19843 -10.8559 -24.8388 -22.1471 2.03217e-16 0.0 3.88251e-19 28.691 -61.756 2.47782 0.317572 39.1371 -0.726459 -1.23391 11.49 6.50996
82.9124 82.8353 124.292 162.57 -17.2395 -158.554 -7.35592 -18.4983 1.72674 -0.19505 14.1723 0.653359 -0.331319 14.0786 4.54778 -2.21656 -6.13149 6.80567 -0.0 0.0 0.0 -0.0 0.0 0.0 1.75656e-13 5.39233e-14 1.66822e-13 76.2036 13.2638 2.29456 -15.5845 -8.30715 28.7998 -0.00380269 -1.78902 -0.251509 -1.42747e-09 3.3626e-09 -8.06715e-10 -2.46875e-09 5.81531e-09 -1.39077e-09 -1.42747e-09 3.3626e-09 -8.06723e-10 7.73091 5.47488 0.417314 -1.42748e-09 3.3626e-09 -8.0672e-10 2.90554 0.965183 0.102902 -1.42747e-09 3.3626e-09 -8.06718e-10 10.2786 0.731801 0.0259123 -1.42748e-09 3.36261e-09 -8.06708e-10 2.22167 -0.733487 -0.20892 1.7572e-13 5.39425e-14 1.66597e-13 -77.3629 13.5283 5.03296 10.8043 -4.64469 -19.3185 0.0721863 7.64448 -1.08084 -1.81035e-09 2.43854e-10 3.31276e-09 -3.10262e-09 4.11255e-10 5.74217e-09 -1.81037e-09 2.43857e-10 3.31278e-09 -7.73091 5.47488 -0.417314 -1.81035e-09 2.43854e-10 3.31277e-09 -2.90554 0.965183 -0.102902 -1.81035e-09 2.43854e-10 3.31277e-09 -10.2786 0.731801 -0.0259123 -1.81034e-09 2.43855e-10 3.31275e-09 -2.22167 -0.733487 0.20892 -2.03217e-16 0.0 -3.88251e-19 -19.0356 -20.8235 3.44586 -0.0156786 25.4084 1.19765 -10.9738 -24.9585 -22.2456 2.03217e-16 0.0 3.88251e-19 28.42 -61.3112 1.85568 0.299707 38.0446 -0.683067 -1.33592 11.8946 6.71109
82.5102 82.7575 124.118 162.569 -17.2455 -158.629 -7.39644 -18.5313 1.63267 -0.326295 14.3059 0.644394 -0.387316 14.1367 4.58638 -2.27542 -6.29925 6.89034 -0.0 0.0 0.0 -0.0 0.0 0.0 2.99725e-13 -9.54256e-14 7.32521e-14 76.021 13.5791 2.45798 -15.6507 -8.36677 28.9388 -0.00463571 -1.94369 -0.273274 -1.53558e-09 2.88671e-09 -9.75082e-10 -2.65247e-09 4.9898e-09 -1.6832e-09 -1.53558e-09 2.88671e-09 -9.75088e-10 7.73091 5.47488 0.417314 -1.53559e-09 2.88671e-09 -9.75088e-10 2.90554 0.965183 0.102902 -1.53558e-09 2.88671e-09 -9.75086e-10 10.2786 0.731801 0.0259123 -1.53559e-09 2.88672e-09 -9.75075e-10 2.22167 -0.733487 -0.20892 2.99829e-13 -9.54071e-14 7.30534e-14 -77.2894 13.5822 4.99118 10.8414 -4.66865 -19.3892 0.0708615 7.57313 -1.07064 -2.00607e-09 9.92927e-10 1.87713e-09 -3.45019e-09 1.71037e-09 3.26175e-09 -2.0061e-09 9.92931e-10 1.87713e-09 -7.73091 5.47488 -0.417314 -2.00607e-09 9.92928e-10 1.87713e-09 -2.90554 0.965183 -0.102902 -2.00608e-09 9.92927e-10 1.87712e-09 -10.2786 0.731801 -0.0259123 -2.00606e-09 9.92929e-10 1.87711e-09 -2.22167 -0.733487 0.20892 -2.03217e-16 0.0 -3.88251e-19 -19.4624 -20.7128 3.39221 -0.0190543 25.5346 1.19533 -11.0786 -25.0818 -22.3174 2.03217e-16 0.0 3.88251e-19 28.1061 -60.8615 1.25882 0.28257 36.9383 -0.640079 -1.43213 12.2648 6.89769
82.1902 82.6607 123.858 162.426 -16.944 -158.69 -7.52959 -18.5815 1.55101 -0.448604 14.4003 0.640542 -0.392336 14.1777 4.59206 -2.38633 -6.31308 6.88712 -0.0 0.0 0.0 -0.0 0.0 0.0 3.70116e-13 -2.7659e-13 7.00083e-14 75.8965 13.7527 2.5877 -15.6887 -8.40096 29.0187 -0.00483877 -1.97348 -0.277467 -1.99832e-09 2.34585e-09 -4.41933e-10 -3.44995e-09 4.05256e-09 -7.61503e-10 -1.99832e-09 2.34585e-09 -4.4194e-10 7.73091 5.47488 0.417314 -1.99833e-09 2.34585e-09 -4.41939e-10 2.90554 0.965183 0.102902 -1.99832e-09 2.34585e-09 -4.41937e-10 10.2786 0.731801 0.0259123 -1.99833e-09 2.34586e-09 -4.41928e-10 2.22167 -0.733487 -0.20892 3.70207e-13 -2.76577e-13 6.98289e-14 -77.2218 13.6549 4.99259 10.8742 -4.68984 -19.4515 0.070553 7.55614 -1.06821 -2.37639e-09 4.17675e-10 -1.06827e-10 -4.10381e-09 7.17851e-10 -1.65267e-10 -2.37642e-09 4.17678e-10 -1.06821e-10 -7.73091 5.47488 -0.417314 -2.3764e-09 4.17676e-10 -1.06826e-10 -2.90554 0.965183 -0.102902 -2.3764e-09 4.17675e-10 -1.0683e-10 -10.2786 0.731801 -0.0259123 -2.37639e-09 4.17678e-10 -1.06843e-10 -2.22167 -0.733487 0.20892 -2.03217e-16 0.0 -3.88251e-19 -20.0008 -20.5864 3.26372 -0.0225169 25.6304 1.19014 -11.1565 -25.2172 -22.3306 2.03217e-16 0.0 3.88251e-19 27.6907 -60.3944 0.658491 0.265242 35.7704 -0.595283 -1.52579 12.604 7.09221
81.7013 82.6249 123.738 162.082 -16.8685 -158.576 -7.72144 -18.6453 1.47311 -0.566907 14.4756 0.639026 -0.368287 14.2067 4.57562 -2.52738 -6.23578 6.82712 -0.0 0.0 0.0 -0.0 0.0 0.0 4.04616e-13 -4.87025e-13 1.05825e-13 75.809 13.8367 2.70238 -15.7094 -8.41963 29.0623 -0.00460896 -1.92583 -0.270762 -2.55989e-09 1.54539e-09 5.43285e-10 -4.41848e-09 2.66668e-09 9.42196e-10 -2.55988e-09 1.54539e-09 5.43277e-10 7.73091 5.47488 0.417314 -2.55989e-09 1.54539e-09 5.43279e-10 2.90554 0.965183 0.102902 -2.55988e-09 1.54539e-09 5.4328e-10 10.2786 0.731801 0.0259123 -2.55989e-09 1.5454e-09 5.43288e-10 2.22167 -0.733487 -0.20892 4.04663e-13 -4.8702e-13 1.05663e-13 -77.1546 13.7419 5.01406 10.9049 -4.70974 -19.5098 0.0708444 7.57173 -1.07044 -2.72776e-09 -8.99589e-10 -2.63374e-09 -4.72885e-09 -1.55784e-09 -4.53116e-09 -2.72778e-09 -8.99588e-10 -2.63374e-09 -7.73091 5.47488 -0.417314 -2.72776e-09 -8.99589e-10 -2.63375e-09 -2.90554 0.965183 -0.102902 -2.72776e-09 -8.99589e-10 -2.63375e-09 -10.2786 0.731801 -0.0259123 -2.72775e-09 -8.99586e-10 -2.63376e-09 -2.22167 -0.733487 0.20892 -2.03217e-16 0.0 -3.88251e-19 -20.6135 -20.4558 3.0806 -0.0259966 25.7098 1.18322 -11.2181 -25.364 -22.3061 2.03217e-16 0.0 3.88251e-19 27.2022 -59.9325 0.065902 0.248592 34.577 -0.549801 -1.61884 12.9211 7.29752
81.3076 82.5238 123.555 162.066 -16.7422 -158.53 -7.89538 -18.6978 1.39832 -0.674642 14.5396 0.63656 -0.341605 14.232 4.55325 -2.66489 -6.14273 6.75399 -0.0 0.0 0.0 -0.0 0.0 0.0 3.97622e-13 -6.39215e-13 1.28523e-13 75.7304 13.9016 2.80587 -15.7321 -8.44037 29.1097 -0.00431426 -1.86792 -0.262614 -2.88041e-09 6.93642e-10 1.42644e-09 -4.97111e-09 1.19275e-09 2.46925e-09 -2.8804e-09 6.93637e-10 1.42643e-09 7.73091 5.47488 0.417314 -2.88041e-09 6.93638e-10 1.42643e-09 2.90554 0.965183 0.102902 -2.8804e-09 6.93636e-10 1.42643e-09 10.2786 0.731801 0.0259123 -2.88041e-09 6.93639e-10 1.42644e-09 2.22167 -0.733487 -0.20892 3.97617e-13 -6.39219e-13 1.28373e-13 -77.0876 13.8404 5.0372 10.9349 -4.72923 -19.5668 0.071323 7.59741 -1.07411 -2.84911e-09 -2.0538e-09 -4.7626e-09 -4.95399e-09 -3.55156e-09 -8.21078e-09 -2.84912e-09 -2.0538e-09 -4.7626e-09 -7.73091 5.47488 -0.417314 -2.84911e-09 -2.0538e-09 -4.76261e-09 -2.90554 0.965183 -0.102902 -2.84912e-09 -2.0538e-09 -4.7626e-09 -10.2786 0.731801 -0.0259123 -2.84911e-09 -2.05379e-09 -4.76261e-09 -2.22167 -0.733487 0.20892 -2.03217e-16 0.0 -3.88251e-19 -21.1956 -20.3024 2.90925 -0.0290152 25.7669 1.17669 -11.2855 -25.504 -22.2996 2.03217e-16 0.0 3.88251e-19 26.7468 -59.4878 -0.467172 0.234032 33.4386 -0.507599 -1.70024 13.2024 7.46026
80.7743 82.4523 123.473 161.821 -16.8722 -158.293 -7.97466 -18.714 1.32601 -0.76523 14.6003 0.629854 -0.338754 14.2621 4.54114 -2.76564 -6.10937 6.71127 -0.0 0.0 0.0 -0.0 0.0 0.0 3.43534e-13 -6.45648e-13 8.59247e-14 75.6317 14.0176 2.90215 -15.7759 -8.48068 29.2009 -0.00427667 -1.86695 -0.262476 -2.62001e-09 -1.10369e-12 1.6534e-09 -4.52092e-09 -8.62566e-12 2.86103e-09 -2.62e-09 -1.11081e-12 1.65339e-09 7.73091 5.47488 0.417314 -2.62001e-09 -1.10962e-12 1.65339e-09 2.90554 0.965183 0.102902 -2.62e-09 -1.11329e-12 1.65339e-09 10.2786 0.731801 0.0259123 -2.62001e-09 -1.11001e-12 1.6534e-09 2.22167 -0.733487 -0.20892 3.43488e-13 -6.45657e-13 8.57756e-14 -77.0208 13.9476 5.04358 10.9656 -4.74921 -19.6252 0.0715707 7.61066 -1.07601 -2.5294e-09 -2.13988e-09 -5.55237e-09 -4.40793e-09 -3.6982e-09 -9.57897e-09 -2.52941e-09 -2.13988e-09 -5.55238e-09 -7.73091 5.47488 -0.417314 -2.5294e-09 -2.13988e-09 -5.55238e-09 -2.90554 0.965183 -0.102902 -2.52941e-09 -2.13988e-09 -5.55238e-09 -10.2786 0.731801 -0.0259123 -2.5294e-09 -2.13987e-09 -5.55238e-09 -2.22167 -0.733487 0.20892 -2.03217e-16 0.0 -3.88251e-19 -21.6429 -20.1083 2.81588 -0.0311071 25.7957 1.17267 -11.3816 -25.619 -22.3672 2.03217e-16 0.0 3.88251e-19 26.4266 -59.0732 -0.892268 0.222334 32.4356 -0.472234 -1.75783 13.4343 7.52677
